<?xml version="1.0" encoding="iso-8859-1"?>
<!-- Generator: Adobe Illustrator 19.0.0, SVG Export Plug-In . SVG Version: 6.00 Build 0)  -->
<svg version="1.1" id="Layer_1" xmlns="http://www.w3.org/2000/svg" xmlns:xlink="http://www.w3.org/1999/xlink" x="0px" y="0px"
	 viewBox="0 0 512.002 512.002" style="enable-background:new 0 0 512.002 512.002;" xml:space="preserve">
<g>
	<g>
		<path d="M498.773,421.27L374.692,297.199c-2.645-2.656-6.163-4.12-9.907-4.124c-0.005,0-0.01,0-0.015,0
			c-2.057,0-4.04,0.455-5.855,1.292l-27.339-27.331c-2.98-2.979-7.813-2.978-10.792,0.002s-2.979,7.813,0.002,10.793l26.716,26.708
			l-14.709,14.708l-14.717,14.717l-6.311-6.311c-0.077-0.077-0.156-0.153-0.235-0.226l-20.176-20.176
			c-2.98-2.98-7.813-2.98-10.792,0c-2.98,2.98-2.98,7.812,0,10.792l20.402,20.402c0.077,0.077,0.156,0.153,0.235,0.226l6.712,6.712
			c-2.372,5.177-1.446,11.507,2.81,15.764l89.505,89.515c2.98,2.98,7.812,2.98,10.793,0c2.98-2.98,2.98-7.812,0-10.792
			l-88.627-88.637l42.376-42.375l123.214,123.203c5.74,5.74,8.849,13.391,8.753,21.543c-0.096,8.15-3.391,15.732-9.274,21.346
			c-11.67,11.127-30.676,10.677-42.36-1l-14.643-14.653c-2.979-2.981-7.812-2.982-10.792-0.004
			c-2.982,2.979-2.984,7.812-0.004,10.793l14.647,14.657c8.982,8.976,20.879,13.493,32.715,13.493
			c11.226,0,22.397-4.063,30.973-12.24c8.885-8.477,13.858-19.917,14.003-32.211C512.141,441.489,507.445,429.941,498.773,421.27z"
			/>
	</g>
</g>
<g>
	<g>
		<path d="M308.661,39.712c-32.776-19.251-72.394-19.378-105.976-0.337c-3.666,2.079-4.954,6.736-2.875,10.403
			c2.079,3.667,6.737,4.953,10.404,2.875c24.336-13.798,52.34-15.871,77.344-6.236c-31.552,17.611-61.748,45.923-77.541,68.281
			l-33.307-33.342l13.428-13.428c2.981-2.979,2.981-7.812,0.002-10.793c-2.98-2.98-7.812-2.981-10.793-0.002l-13.424,13.425
			l-8.956-8.965c-1.432-1.435-3.352-2.197-5.402-2.241c-2.024,0-3.965,0.804-5.396,2.236L75.988,131.77
			c-2.958,2.958-2.984,7.747-0.057,10.735c0.771,0.788,1.408,1.68,1.902,2.665c3.121,6.207,0.605,15.492-5.981,22.079
			c-6.548,6.548-15.511,9.056-21.84,6.077c-1.075-0.498-2.047-1.17-2.892-1.998c-2.988-2.931-7.78-2.908-10.74,0.052L2.235,205.522
			c-2.98,2.98-2.98,7.812,0,10.792l74.435,74.435c1.431,1.432,3.372,2.236,5.396,2.236s3.965-0.804,5.396-2.236l34.141-34.141
			c2.947-2.947,2.984-7.714,0.084-10.708c-0.785-0.809-1.43-1.732-1.93-2.768c-3.021-6.195-0.483-15.422,6.034-21.94
			c6.568-6.567,15.841-9.089,22.049-5.998c0.981,0.488,1.878,1.123,2.668,1.889c2.993,2.9,7.76,2.86,10.706-0.085l9.15-9.15
			l38.971,38.962c1.49,1.49,3.442,2.235,5.396,2.235s3.906-0.745,5.397-2.236c2.98-2.98,2.979-7.813-0.001-10.793l-38.97-38.961
			l29.431-29.431l38.971,38.971c1.49,1.491,3.443,2.236,5.396,2.236c1.953,0,3.906-0.745,5.396-2.236c2.98-2.98,2.98-7.812,0-10.792
			l-38.971-38.971l9.98-9.979c1.432-1.431,2.236-3.372,2.236-5.396s-0.804-3.965-2.236-5.396l-10.382-10.391
			c16.127-24.104,52.86-57.287,86.912-72.401c2.615-1.161,4.361-3.687,4.523-6.543C312.578,43.868,311.128,41.16,308.661,39.712z
			 M82.067,274.561l-63.642-63.643l23.348-23.348l63.642,63.642L82.067,274.561z M114.999,210.4
			c-5.336,5.336-8.932,11.674-10.649,18.162l-39.884-39.884c6.504-1.715,12.852-5.312,18.176-10.636
			c5.828-5.828,9.594-13.002,11.055-20.244l41.553,41.553C128.002,200.812,120.823,204.577,114.999,210.4z M157.056,199.571
			l-63.643-63.643l58.147-58.147l63.612,63.673L157.056,199.571z"/>
	</g>
</g>
<g>
	<g>
		<path d="M464.71,30.753c-1.916-1.799-4.625-2.485-7.166-1.815c-2.542,0.669-4.561,2.599-5.342,5.108l-12.721,40.766
			c-3.645,11.673-16.104,18.205-27.769,14.566c-3.465-1.079-6.51-2.914-9.052-5.456c-5.859-5.859-7.965-14.404-5.493-22.306
			l12.577-40.308c0.788-2.526,0.212-5.279-1.522-7.277c-1.735-1.997-4.375-2.956-6.991-2.53
			c-13.912,2.266-26.801,8.334-37.27,17.544c-21.905,19.259-30.64,48.642-22.797,76.679c4.333,15.516,0.148,32.033-10.926,43.105
			L144.835,334.233c-9.328,9.328-21.391,16.504-34.879,20.751c-11.403,3.577-21.931,9.969-30.447,18.485
			c-14.483,14.483-22.282,33.74-21.961,54.224c0.322,20.486,8.742,39.508,23.708,53.563c1.917,1.799,4.624,2.488,7.166,1.817
			c2.543-0.669,4.562-2.599,5.344-5.108l12.722-40.783c1.762-5.651,5.621-10.277,10.864-13.028
			c5.242-2.749,11.24-3.294,16.898-1.529c3.465,1.079,6.51,2.913,9.052,5.456c5.859,5.859,7.968,14.403,5.5,22.3l-12.57,40.315
			c-0.788,2.526-0.211,5.278,1.524,7.276c1.462,1.684,3.571,2.628,5.761,2.628c0.408,0,0.819-0.033,1.229-0.1
			c13.904-2.268,26.787-8.335,37.254-17.544c21.901-19.255,30.639-48.641,22.803-76.69c-4.337-15.501-0.15-32.011,10.927-43.087
			l14.196-14.196c2.98-2.98,2.98-7.812,0-10.792c-2.98-2.98-7.813-2.979-10.792,0l-8.8,8.8l-28.335-28.335l153.635-153.637
			l28.335,28.335L237.481,319.843c-2.98,2.98-2.98,7.812,0,10.792c2.98,2.98,7.813,2.98,10.792,0l152.866-152.866
			c9.331-9.33,21.391-16.504,34.882-20.746c11.406-3.594,21.932-9.99,30.438-18.496c14.486-14.486,22.285-33.747,21.96-54.232
			C488.095,63.813,479.675,44.798,464.71,30.753z M199.903,358.145c-11.142,14.587-14.911,33.957-9.799,52.231
			c6.244,22.349-0.722,45.768-18.183,61.119c-5.029,4.424-10.765,7.936-16.962,10.42l8.415-26.987
			c4.163-13.331,0.608-27.754-9.278-37.64c-4.248-4.248-9.542-7.443-15.306-9.235c-9.542-2.977-19.674-2.059-28.527,2.585
			c-8.853,4.643-15.368,12.456-18.345,21.999l-8.642,27.705c-6.626-9.608-10.277-20.936-10.465-32.889
			c-0.256-16.317,5.956-31.656,17.491-43.192c6.783-6.783,15.159-11.871,24.23-14.716c15.828-4.984,30.04-13.462,41.095-24.519
			l15.578-15.578L199.903,358.145z M455.667,127.732c-6.875,6.875-15.028,11.831-24.228,14.73
			c-15.821,4.976-30.029,13.452-41.09,24.513l-15.587,15.586l-28.697-28.697c11.137-14.583,14.906-33.957,9.798-52.248
			c-6.25-22.342,0.714-45.756,18.177-61.109c5.031-4.426,10.771-7.939,16.975-10.424l-8.418,26.981
			c-4.17,13.335-0.619,27.762,9.269,37.65c4.247,4.248,9.542,7.441,15.306,9.235c19.698,6.146,40.726-4.886,46.879-24.589
			l8.644-27.696c6.624,9.601,10.274,20.923,10.464,32.869C473.417,100.853,467.204,116.194,455.667,127.732z"/>
	</g>
</g>
<g>
</g>
<g>
</g>
<g>
</g>
<g>
</g>
<g>
</g>
<g>
</g>
<g>
</g>
<g>
</g>
<g>
</g>
<g>
</g>
<g>
</g>
<g>
</g>
<g>
</g>
<g>
</g>
<g>
</g>
</svg>
