<?xml version="1.0" standalone="no"?>
<!DOCTYPE svg PUBLIC "-//W3C//DTD SVG 20010904//EN"
 "http://www.w3.org/TR/2001/REC-SVG-20010904/DTD/svg10.dtd">
<svg version="1.0" xmlns="http://www.w3.org/2000/svg"
 width="1000.000000pt" height="1000.000000pt" viewBox="0 0 1000.000000 1000.000000"
 preserveAspectRatio="xMidYMid meet">
<metadata>
Created by potrace 1.14, written by Peter Selinger 2001-2017
</metadata>
<g transform="translate(0.000000,1000.000000) scale(0.100000,-0.100000)"
fill="#000000" stroke="none">
<path d="M4997 9118 c-2 -13 -28 -97 -56 -188 -129 -408 -165 -523 -203 -640
-22 -69 -46 -145 -53 -170 -15 -54 -371 -1184 -384 -1220 -5 -14 -31 -92 -56
-175 -26 -82 -64 -204 -85 -270 -21 -66 -59 -187 -85 -270 -25 -82 -62 -197
-80 -255 -19 -58 -97 -305 -174 -550 -77 -245 -167 -533 -201 -640 -34 -107
-72 -229 -85 -270 -13 -41 -50 -160 -83 -265 -196 -619 -306 -968 -323 -1025
-28 -91 -129 -410 -139 -440 -5 -14 -34 -104 -64 -200 -30 -96 -79 -254 -110
-350 -123 -390 -249 -792 -287 -915 -22 -71 -41 -135 -43 -140 -2 -7 842 -10
2524 -10 l2527 0 -14 48 c-17 58 -49 161 -138 442 -37 116 -80 252 -96 303
-16 50 -42 134 -58 185 -92 290 -257 815 -281 892 -62 199 -143 456 -177 560
-30 94 -82 260 -223 710 -15 50 -55 176 -88 280 -33 105 -90 285 -126 400 -37
116 -75 237 -86 270 -10 33 -73 231 -139 440 -66 209 -123 388 -126 397 -6 16
13 62 130 314 25 53 45 97 45 99 0 2 25 56 56 121 78 166 124 265 124 269 0 2
26 59 58 126 32 68 72 153 88 189 16 35 70 152 120 260 83 179 92 195 115 193
119 -9 143 -8 210 8 137 35 245 127 309 264 42 89 53 137 52 237 -1 186 -113
364 -279 444 -136 66 -308 56 -433 -24 -99 -63 -166 -150 -205 -267 -65 -191
-16 -395 126 -536 l67 -66 -95 -204 c-52 -112 -103 -224 -115 -249 -11 -25
-72 -157 -135 -295 -263 -572 -295 -640 -302 -648 -4 -4 -50 131 -103 300 -53
170 -126 403 -163 518 -36 116 -89 282 -117 370 -27 88 -59 187 -70 220 -10
33 -21 67 -23 75 -2 8 -10 35 -18 60 -32 97 -129 403 -132 419 -4 17 -140 443
-227 716 -29 88 -51 163 -50 168 1 4 -2 7 -7 7 -5 0 -11 -10 -14 -22z m50
-550 c34 -113 105 -339 208 -663 37 -115 79 -250 95 -300 15 -49 64 -205 108
-345 45 -140 146 -463 226 -717 l146 -462 -50 -106 c-28 -59 -50 -108 -50
-110 0 -2 -20 -45 -44 -96 -24 -52 -55 -119 -69 -149 -14 -30 -46 -99 -71
-153 -25 -54 -46 -100 -46 -102 0 -2 -24 -54 -54 -117 -29 -62 -64 -135 -76
-163 -12 -27 -42 -92 -66 -143 -24 -51 -44 -95 -44 -97 0 -1 -24 -54 -53 -116
-30 -63 -107 -230 -172 -371 l-119 -258 -673 0 c-370 0 -673 3 -673 8 0 4 23
79 51 167 28 88 104 331 171 540 66 209 126 400 133 425 7 25 31 101 53 170
22 69 79 249 127 400 48 151 100 318 117 370 84 267 99 316 103 330 4 15 165
525 260 825 30 94 95 301 145 460 51 160 119 376 152 480 33 105 74 236 91
293 17 56 34 102 37 102 3 0 20 -46 37 -102z m1849 -98 c147 -33 256 -180 256
-346 0 -109 -33 -194 -105 -265 -70 -70 -168 -109 -254 -101 -37 4 -38 -3 24
132 89 191 106 230 102 233 -2 2 -30 18 -61 35 l-58 32 -14 -32 c-7 -18 -32
-71 -54 -118 -22 -47 -54 -116 -71 -154 l-31 -70 -36 35 c-70 68 -109 169
-107 279 5 224 201 386 409 340z m-882 -2975 c3 -11 16 -54 29 -95 14 -41 48
-149 77 -240 28 -91 55 -176 59 -190 24 -73 66 -204 115 -360 30 -96 78 -248
106 -338 29 -90 50 -166 47 -168 -2 -2 -312 -3 -689 -2 l-685 3 53 115 c29 63
70 151 90 195 21 44 66 143 102 220 35 77 78 169 94 205 17 36 40 88 53 115
12 28 38 84 58 125 19 41 84 183 145 315 60 132 131 285 157 340 26 55 52 111
57 125 8 22 17 0 69 -160 32 -102 61 -194 63 -205z m513 -1623 c15 -48 27 -89
28 -92 2 -6 15 -48 88 -280 31 -96 108 -341 172 -545 64 -203 143 -453 175
-555 32 -102 82 -259 110 -350 29 -91 65 -205 80 -255 16 -49 56 -175 89 -280
33 -104 63 -203 67 -220 l5 -30 -2334 0 c-1555 0 -2333 3 -2331 10 2 5 44 141
94 300 50 160 102 324 115 365 13 41 49 156 80 255 31 99 72 227 90 285 41
128 123 388 205 650 33 107 65 206 70 220 4 14 29 93 55 175 26 83 67 214 92
292 l45 141 1489 0 1489 0 27 -86z"/>
</g>
</svg>
