<?xml version="1.0" standalone="no"?>
<!DOCTYPE svg PUBLIC "-//W3C//DTD SVG 20010904//EN"
 "http://www.w3.org/TR/2001/REC-SVG-20010904/DTD/svg10.dtd">
<svg version="1.0" xmlns="http://www.w3.org/2000/svg"
 width="300.000000pt" height="300.000000pt" viewBox="0 0 300.000000 300.000000"
 preserveAspectRatio="xMidYMid meet">
<metadata>
Created by potrace 1.11, written by Peter Selinger 2001-2013
</metadata>
<g transform="translate(0.000000,300.000000) scale(0.100000,-0.100000)"
fill="#000000" stroke="none">
<path d="M585 2928 c-3 -7 -4 -503 -3 -1102 l3 -1089 133 199 132 199 0 763 0
763 358 -3 c348 -3 358 -4 407 -26 63 -29 110 -73 143 -137 22 -42 26 -63 27
-130 0 -77 -1 -82 -38 -132 -20 -28 -291 -453 -602 -944 l-565 -894 0 -157 0
-158 661 0 660 0 77 26 c95 31 205 89 282 149 101 78 231 247 309 404 108 213
106 546 -4 779 -67 143 -159 257 -292 362 -68 55 -181 126 -187 119 -35 -43
-161 -248 -155 -253 2 -1 38 -25 79 -52 205 -134 318 -319 328 -539 5 -119
-11 -191 -68 -310 -73 -152 -197 -271 -350 -338 l-75 -32 -467 -3 c-258 -1
-468 0 -468 3 0 6 577 924 924 1470 104 165 201 326 214 359 77 189 38 404
-96 535 -97 95 -228 153 -387 171 -138 15 -974 13 -980 -2z"/>
</g>
</svg>
