<?xml version="1.0"?>
<svg xmlns="http://www.w3.org/2000/svg" viewBox="0 0 128 128" width="512" height="512"><g id="Layer_2" data-name="Layer 2"><path d="M106.562,6.375h-3.625V5.75A5.756,5.756,0,0,0,97.187,0H11.437a5.757,5.757,0,0,0-5.75,5.75V18.5a5.757,5.757,0,0,0,5.75,5.75h85.75a5.756,5.756,0,0,0,5.75-5.75v-.625h3.625a4.254,4.254,0,0,1,4.25,4.25v8.807a4.227,4.227,0,0,1-3.315,4.146l-49.765,11.2a11.686,11.686,0,0,0-9.17,11.464v9.72H36.437a1.75,1.75,0,0,0-1.75,1.75v5.23a1.748,1.748,0,0,0,.361,1.064l4,5.229a1.749,1.749,0,0,0,1.389.687h5.175l-2.47,38.33A7.749,7.749,0,0,0,50.878,128h6.869a7.749,7.749,0,0,0,7.733-8.248l-2.47-38.33h5.175a1.749,1.749,0,0,0,1.389-.687l4-5.229a1.747,1.747,0,0,0,.36-1.064v-5.23a1.749,1.749,0,0,0-1.75-1.75H60.062v-9.72a.242.242,0,0,1,.2-.245l49.765-11.2a15.662,15.662,0,0,0,12.29-15.365V22.125A15.767,15.767,0,0,0,106.562,6.375ZM99.437,18.5a2.253,2.253,0,0,1-2.25,2.25H11.437a2.253,2.253,0,0,1-2.25-2.25V5.75a2.253,2.253,0,0,1,2.25-2.25h85.75a2.253,2.253,0,0,1,2.25,2.25ZM61.988,119.977a4.25,4.25,0,0,1-4.241,4.523H50.878a4.25,4.25,0,0,1-4.241-4.523l2.485-38.555H59.5ZM70.437,73.85,67.32,77.922H41.305L38.187,73.85V70.962h32.25Zm48.375-42.918a12.183,12.183,0,0,1-9.558,11.951l-49.766,11.2a3.731,3.731,0,0,0-2.926,3.659v9.72h-4.5v-9.72a8.206,8.206,0,0,1,6.438-8.05l49.766-11.2a7.707,7.707,0,0,0,6.046-7.56V22.125a7.759,7.759,0,0,0-7.75-7.75h-3.625v-4.5h3.625a12.263,12.263,0,0,1,12.25,12.25Z"/></g></svg>
