<svg id="Layer_1" enable-background="new 0 0 512 512" height="512" viewBox="0 0 512 512" width="512" xmlns="http://www.w3.org/2000/svg"><path d="m418.5 148.097v-7.987c0-34.513-12.66-67.674-35.646-93.374-2.763-3.087-7.503-3.352-10.59-.59s-3.352 7.503-.59 10.59c20.524 22.946 31.827 52.556 31.827 83.374v7.39h-10.287c-.117-7.398-.842-14.595-2.168-21.479-5.424-28.146-16.142-48.02-33.729-62.542-22.518-18.591-55.658-27.629-101.317-27.629s-78.799 9.038-101.315 27.629c-17.588 14.522-28.305 34.396-33.729 62.542-1.327 6.884-2.052 14.082-2.169 21.479h-10.287v-4.02c0-70.844 57.636-128.48 128.48-128.48h41.41c25.385 0 49.822 7.557 70.669 21.854 3.416 2.343 8.084 1.473 10.427-1.943s1.473-8.084-1.943-10.427c-23.356-16.018-50.727-24.484-79.153-24.484h-41.41c-79.115 0-143.48 64.365-143.48 143.48v4.617c-16.481 3.062-29 17.548-29 34.903v64c0 19.575 15.925 35.5 35.5 35.5h2.5v10.5c0 9.649 7.851 17.5 17.5 17.5h6.5v102.614c-4.673 4.843-8.901 10.204-12.599 16.04-2.217 3.499-1.179 8.132 2.32 10.35 3.484 2.209 8.124 1.192 10.35-2.32 15.564-24.561 42.229-39.334 71.429-39.334h2.526l26.945 29.871c4.259 4.723 11.832 3.989 15.14-1.375l13.389-21.706 13.389 21.706c3.304 5.358 10.876 6.103 15.14 1.376l26.945-29.872h2.526c46.593 0 84.5 37.907 84.5 84.5v14.65h-33v-18.5c0-6.341-5.159-11.5-11.5-11.5h-64c-6.341 0-11.5 5.159-11.5 11.5v18.5h-165v-14.65c0-5.86.602-11.711 1.79-17.391.848-4.054-1.751-8.028-5.806-8.876-4.052-.848-8.028 1.751-8.876 5.806-1.398 6.687-2.107 13.571-2.107 20.461v16.15c0 7.444 6.056 13.5 13.5 13.5h288c7.444 0 13.5-6.056 13.5-13.5v-16.15c0-26.83-10.675-51.214-28-69.128v-61.164c0-4.142-3.358-7.5-7.5-7.5s-7.5 3.358-7.5 7.5v48.429c-16.059-11.118-35.533-17.637-56.5-17.637h-3.154l-17.347-14.451v-18.277c33.562-11.535 60.181-38.136 71.742-71.686 1.599 1.166 3.366 2.114 5.258 2.8v38.636c0 4.142 3.358 7.5 7.5 7.5s7.5-3.358 7.5-7.5v-37.372h26.5c19.575 0 35.5-15.925 35.5-35.5v-64c0-17.355-12.519-31.841-29-34.903zm-125 348.903v-15h57v15zm-157.815-368.141c7.433-38.575 27.54-78.009 120.315-78.009s112.882 39.434 120.316 78.009c1.148 5.955 1.781 12.2 1.896 18.641h-.496c-11.698 0-21.216 9.518-21.216 21.216v48.122c-.15-.008-.285-.023-.402-.047-.884-1.359-2.639-3.597-6.996-9.124-17.073-21.654-62.423-79.174-82.882-128.824-1.722-4.162-5.738-6.851-10.233-6.851-4.489 0-8.5 2.686-10.217 6.84-20.546 49.653-65.833 107.178-82.881 128.833-4.357 5.535-6.109 7.773-6.988 9.125-.116.024-.251.039-.401.048v-48.122c0-11.698-9.518-21.216-21.216-21.216h-.496c.115-6.44.749-12.686 1.897-18.641zm5.815 152.377c1.892-.686 3.659-1.634 5.258-2.8 2.04 5.919 4.548 11.622 7.481 17.064h-12.739zm-62-34.236v-64c0-11.304 9.196-20.5 20.5-20.5h34.284c3.427 0 6.216 2.789 6.216 6.216v54.015c-.002.1-.002.201 0 .301v38.252c0 3.427-2.789 6.216-6.216 6.216h-34.284c-11.304 0-20.5-9.196-20.5-20.5zm40.5 48.5c-1.378 0-2.5-1.122-2.5-2.5v-10.5h9v13zm43.884 15c13.736 18.127 32.695 32.087 54.616 39.622v18.277l-17.346 14.451h-3.154c-20.599 0-40.171 6.249-56.5 17.526v-89.876zm69.812 101.728-19.037-21.105 12.003-10 19.011 11.687zm44.608 0-11.978-19.418 19.011-11.687 12.003 10zm.196-44.51-22.5 13.832-22.5-13.831v-13.556c7.258 1.435 14.758 2.188 22.43 2.188h.14c7.672 0 15.172-.753 22.43-2.188zm-22.43-26.368h-.14c-28.393 0-54.072-11.844-72.356-30.85h34.926v.5c0 8.547 6.953 15.5 15.5 15.5h44c8.547 0 15.5-6.953 15.5-15.5v-16c0-8.547-6.953-15.5-15.5-15.5h-44c-8.547 0-15.5 6.953-15.5 15.5v.5h-46.841c-10.219-15.723-16.159-34.471-16.159-54.58v-9.084c7.613-.104 11.368-4.247 12.977-6.868.533-.827 3.285-4.322 6.198-8.023 16.464-20.914 58.735-74.61 81.311-124.016 22.508 49.408 64.847 103.11 81.337 124.026 2.914 3.696 5.667 7.187 6.185 7.99 1.622 2.642 5.377 6.787 12.992 6.891v9.084c0 55.377-45.053 100.43-100.43 100.43zm-22.57-46.35c0-.276.224-.5.5-.5h44c.276 0 .5.224.5.5v16c0 .276-.224.5-.5.5h-44c-.276 0-.5-.224-.5-.5 0-.25 0-15.762 0-16zm199-48c0 11.304-9.196 20.5-20.5 20.5h-34.284c-3.427 0-6.216-2.789-6.216-6.216v-38.251c.002-.101.002-.201 0-.302v-54.015c0-3.427 2.789-6.216 6.216-6.216h34.284c11.304 0 20.5 9.196 20.5 20.5z"/></svg>