<?xml version="1.0" standalone="no"?>
<!DOCTYPE svg PUBLIC "-//W3C//DTD SVG 20010904//EN"
 "http://www.w3.org/TR/2001/REC-SVG-20010904/DTD/svg10.dtd">
<svg version="1.0" xmlns="http://www.w3.org/2000/svg"
 width="300.000000pt" height="300.000000pt" viewBox="0 0 300.000000 300.000000"
 preserveAspectRatio="xMidYMid meet">
<metadata>
Created by potrace 1.11, written by Peter Selinger 2001-2013
</metadata>
<g transform="translate(0.000000,300.000000) scale(0.100000,-0.100000)"
fill="#000000" stroke="none">
<path d="M0 1500 l0 -1500 1500 0 1500 0 0 1500 0 1500 -1500 0 -1500 0 0
-1500z m1014 171 c23 -22 26 -32 26 -96 0 -64 -3 -74 -26 -96 -24 -23 -32 -24
-167 -26 l-142 -2 -3 -35 -3 -36 170 0 171 0 0 -40 0 -40 -215 0 -215 0 0 90
c0 83 2 93 25 115 23 24 28 25 170 25 l145 0 0 45 0 45 -118 0 c-106 0 -119
-2 -135 -21 -25 -29 -81 -23 -85 9 -4 28 22 70 51 82 12 5 90 8 174 7 145 -2
153 -3 177 -26z m453 9 c35 -21 41 -42 46 -148 l2 -63 139 116 c127 106 142
116 175 113 l36 -3 3 -106 3 -107 29 -6 c27 -5 30 -10 30 -41 0 -31 -3 -36
-30 -41 -28 -6 -30 -10 -30 -50 l0 -44 -45 0 -45 0 0 45 0 45 -119 0 c-66 0
-126 3 -135 6 -12 4 -16 0 -16 -16 0 -12 -13 -35 -29 -51 l-29 -29 -162 0
c-158 0 -161 1 -185 25 -24 23 -25 28 -25 173 0 203 -2 201 210 202 126 0 149
-3 177 -20z m882 -6 l30 -25 0 -145 c0 -80 -3 -152 -6 -160 -13 -35 -58 -44
-213 -44 l-152 0 -28 28 -29 29 0 139 c0 148 8 176 52 194 12 5 88 9 169 9
143 1 147 0 177 -25z"/>
<path d="M1166 1604 c-9 -22 -7 -132 2 -137 11 -7 193 134 186 144 -3 5 -45 9
-94 9 -71 0 -89 -3 -94 -16z"/>
<path d="M1712 1524 l-54 -44 61 0 61 0 0 45 c0 25 -3 45 -7 44 -5 0 -32 -20
-61 -45z"/>
<path d="M1313 1463 l-103 -78 101 -3 c56 -1 103 -1 106 1 2 3 3 39 1 81 l-3
77 -102 -78z"/>
<path d="M2044 1606 c-3 -8 -4 -27 -2 -43 l3 -28 120 0 120 0 0 40 0 40 -118
3 c-95 2 -118 0 -123 -12z"/>
<path d="M2047 1463 c-4 -3 -7 -24 -7 -45 l0 -38 125 0 125 0 0 45 0 45 -118
0 c-65 0 -122 -3 -125 -7z"/>
</g>
</svg>
