<?xml version="1.0" standalone="no"?>
<!DOCTYPE svg PUBLIC "-//W3C//DTD SVG 20010904//EN"
 "http://www.w3.org/TR/2001/REC-SVG-20010904/DTD/svg10.dtd">
<svg version="1.0" xmlns="http://www.w3.org/2000/svg"
 width="200.000000pt" height="200.000000pt" viewBox="0 0 200.000000 200.000000"
 preserveAspectRatio="xMidYMid meet">
<metadata>
Created by potrace 1.11, written by Peter Selinger 2001-2013
</metadata>
<g transform="translate(0.000000,200.000000) scale(0.100000,-0.100000)"
fill="#000000" stroke="none">
<path d="M856 1824 c-9 -8 -16 -26 -16 -39 0 -29 -219 -238 -259 -245 -42 -8
-60 -23 -67 -57 -5 -24 -1 -36 15 -52 l20 -20 -62 -139 c-55 -124 -65 -140
-92 -148 -39 -12 -56 -47 -43 -85 5 -16 14 -29 20 -29 6 0 7 -38 3 -102 -11
-176 -15 -202 -36 -231 -29 -40 -31 -62 -8 -92 27 -34 71 -34 98 1 l21 26 255
5 256 4 20 -25 c22 -28 66 -35 86 -15 9 9 43 -1 135 -37 68 -26 134 -56 147
-66 13 -10 32 -18 41 -18 22 0 70 61 70 89 0 11 22 66 48 123 27 57 55 117 62
135 8 17 24 36 37 42 56 26 62 108 8 133 -14 6 -25 18 -26 27 0 9 -2 23 -3 31
-2 8 -6 44 -10 80 -9 86 -17 150 -21 177 -2 12 3 27 11 34 34 28 -1 99 -50 99
-17 0 -45 25 -103 92 -73 84 -79 95 -68 113 43 68 -40 145 -108 101 -20 -13
-35 -11 -152 21 -94 26 -136 42 -152 59 -25 28 -55 31 -77 8z m249 -111 c132
-37 132 -41 23 -172 -73 -88 -86 -99 -108 -95 -14 3 -27 7 -28 9 -9 9 -72 279
-68 291 5 14 24 11 181 -33z m-189 -124 c29 -120 33 -147 23 -166 -7 -13 -17
-23 -24 -23 -6 0 -67 19 -135 43 -164 58 -165 62 -57 160 127 114 152 136 155
132 2 -1 19 -67 38 -146z m409 -23 c82 -88 134 -153 135 -167 0 -14 -22 -16
-192 -15 -170 1 -193 3 -196 17 -2 9 3 23 10 30 8 8 45 51 82 97 65 78 70 83
100 77 17 -4 45 -21 61 -39z m-399 -231 c11 -22 5 -34 -65 -135 -42 -60 -80
-110 -86 -110 -25 0 -39 26 -90 174 -41 117 -53 162 -45 171 9 11 37 4 143
-31 108 -36 134 -49 143 -69z m-276 -75 c29 -82 49 -155 46 -162 -25 -47 -32
-55 -56 -52 -79 11 -164 25 -165 27 0 1 -5 11 -11 22 -9 16 -1 41 43 137 29
64 53 120 53 123 0 6 31 55 35 55 1 0 26 -67 55 -150z m815 80 c9 -14 -162
-297 -183 -302 -13 -4 -42 30 -119 141 -65 94 -98 150 -92 157 12 15 385 19
394 4z m60 -112 c3 -37 8 -76 10 -88 19 -96 14 -181 -10 -218 -7 -10 -154 55
-171 75 l-21 25 85 145 c47 79 88 140 93 136 4 -4 11 -38 14 -75z m-302 -225
c-6 -14 -34 -14 -137 2 -11 2 -46 6 -76 10 -30 3 -82 10 -115 14 -33 5 -63 7
-66 5 -4 -2 -11 2 -17 9 -7 9 13 45 72 129 75 108 84 117 116 120 35 3 36 1
132 -135 59 -85 94 -145 91 -154z m-543 -9 c12 -12 10 -19 -21 -51 -96 -102
-179 -191 -201 -217 -17 -20 -30 -27 -41 -23 -15 6 -16 19 -11 99 12 194 10
185 39 211 l28 23 96 -14 c53 -8 103 -21 111 -28z m248 -9 c23 -3 59 -7 80
-10 20 -2 62 -7 92 -11 30 -3 64 -7 75 -9 11 -1 26 -3 33 -4 23 -2 12 -26 -63
-139 -60 -89 -80 -112 -99 -112 -17 0 -47 29 -121 118 -54 64 -105 124 -112
133 -7 9 -11 24 -7 33 5 14 15 16 43 12 20 -3 55 -8 79 -11z m-50 -170 c93
-108 109 -132 98 -143 -11 -11 -73 -15 -270 -18 -141 -2 -256 -1 -256 3 0 5
16 26 36 48 55 60 207 226 221 241 26 25 62 -2 171 -131z m571 94 c45 -17 85
-38 90 -47 6 -12 -7 -50 -45 -130 -49 -105 -55 -113 -76 -107 -13 4 -26 10
-30 14 -4 3 -20 62 -35 131 -29 125 -29 125 -9 148 11 12 21 22 22 22 1 0 39
-14 83 -31z m-132 -152 c22 -94 28 -135 21 -144 -6 -7 -13 -26 -17 -42 l-6
-29 -107 41 c-136 51 -136 51 -33 204 97 146 101 145 142 -30z"/>
<path d="M590 325 l0 -175 25 0 25 0 0 175 0 175 -25 0 -25 0 0 -175z"/>
<path d="M1688 488 c-2 -7 -4 -85 -3 -173 1 -157 2 -160 23 -163 16 -2 22 2
23 15 1 23 1 292 0 316 -1 20 -37 24 -43 5z"/>
<path d="M977 467 c-24 -18 -27 -82 -7 -122 16 -32 16 -34 -3 -53 -24 -25 -31
-107 -10 -128 10 -10 39 -14 93 -14 43 0 82 -4 85 -10 3 -5 17 -10 31 -10 l25
0 -20 29 c-13 18 -21 45 -21 70 0 34 -3 41 -19 41 -11 0 -21 -8 -23 -17 -3
-14 -8 -11 -27 15 l-23 33 22 24 c25 27 34 105 16 131 -15 19 -98 27 -119 11z
m79 -69 c1 -47 -22 -71 -41 -44 -10 14 -13 57 -6 84 1 2 11 2 24 0 18 -2 22
-10 23 -40z m4 -168 l32 -40 -51 0 -51 0 0 33 c0 33 16 60 31 51 4 -2 22 -22
39 -44z"/>
<path d="M129 443 c-1 -5 -1 -11 -1 -15 1 -3 -5 -12 -13 -18 -18 -15 -19 -37
-3 -42 8 -3 12 -36 13 -102 1 -105 6 -116 57 -116 20 0 26 5 25 19 -1 11 -9
22 -19 24 -16 4 -18 17 -18 91 0 47 3 85 8 85 21 -4 30 3 28 19 -2 9 -9 17
-17 17 -8 0 -15 10 -17 23 -2 14 -10 22 -23 22 -10 0 -20 -3 -20 -7z"/>
<path d="M1190 432 c0 -8 -7 -24 -16 -34 -16 -16 -16 -18 0 -24 13 -5 16 -23
16 -105 0 -87 2 -99 19 -109 29 -15 58 -12 65 6 4 11 -1 18 -14 21 -18 5 -20
14 -20 89 0 74 2 85 21 94 16 9 18 14 9 26 -7 7 -16 11 -21 8 -5 -3 -9 6 -9
19 0 19 -5 25 -25 25 -16 0 -25 -6 -25 -16z"/>
<path d="M251 394 c-19 -14 -21 -25 -21 -118 0 -72 4 -107 13 -114 7 -6 40
-11 73 -11 l60 1 -1 121 c-1 67 -3 124 -4 127 -2 9 -41 6 -41 -3 0 -4 -4 -5
-10 -2 -21 13 -49 13 -69 -1z m74 -115 c0 -79 -1 -84 -22 -87 -22 -3 -23 -1
-23 81 0 89 2 96 28 93 14 -3 17 -16 17 -87z"/>
<path d="M451 400 c-29 -7 -39 -32 -34 -85 4 -48 9 -53 53 -57 32 -3 35 -6 35
-33 0 -23 -5 -31 -22 -33 -16 -2 -23 2 -23 12 0 10 -9 16 -24 16 -20 0 -23 -4
-19 -22 10 -38 24 -48 67 -48 55 0 66 13 66 76 0 63 -3 65 -78 73 -9 1 -12 12
-10 34 2 24 8 32 23 32 11 0 20 -7 20 -15 0 -8 10 -16 23 -18 17 -3 22 1 22
20 0 13 -4 29 -8 35 -10 15 -57 22 -91 13z"/>
<path d="M702 397 c-11 -15 -52 -104 -52 -114 0 -5 12 -36 26 -70 22 -52 31
-63 51 -63 12 0 23 2 23 4 0 2 -11 29 -25 60 -30 68 -30 71 -5 121 11 22 21
46 23 54 3 17 -29 23 -41 8z"/>
<path d="M785 390 c-17 -19 -20 -82 -5 -111 8 -13 21 -19 45 -19 33 0 35 -2
35 -35 0 -28 -4 -35 -20 -35 -11 0 -20 7 -20 15 0 9 -10 15 -26 15 -24 0 -25
-3 -19 -27 8 -35 21 -43 67 -43 49 0 68 21 68 74 0 47 -16 68 -53 70 -35 2
-44 13 -39 46 5 35 42 44 42 10 0 -15 7 -20 25 -20 22 0 25 4 21 27 -7 37 -17
44 -65 47 -28 2 -46 -2 -56 -14z"/>
<path d="M1329 401 c-8 -2 -17 -9 -21 -15 -13 -19 -9 -211 4 -224 16 -16 110
-16 126 0 14 14 17 205 3 227 -9 14 -82 22 -112 12z m75 -121 c0 -81 -1 -85
-23 -88 -13 -2 -27 1 -31 7 -5 9 -6 126 -1 164 1 5 13 7 28 5 l27 -3 0 -85z"/>
<path d="M1510 393 c-18 -12 -20 -25 -20 -109 0 -124 6 -134 74 -134 36 0 58
5 66 15 16 19 18 211 3 226 -17 17 -100 18 -123 2z m81 -31 c1 -4 3 -44 4 -89
l1 -83 -28 0 -28 0 0 88 c0 86 0 88 25 90 14 1 26 -2 26 -6z"/>
<path d="M1773 393 c-8 -21 5 -30 41 -28 40 3 40 7 -13 -100 -19 -38 -36 -80
-37 -92 -3 -22 1 -23 67 -23 62 0 69 2 69 20 0 17 -7 20 -40 20 -22 0 -40 5
-40 10 0 6 18 47 41 91 52 105 50 114 -25 114 -36 0 -60 -5 -63 -12z"/>
</g>
</svg>
