<svg height="512pt" viewBox="-33 0 512 512" width="512pt" xmlns="http://www.w3.org/2000/svg"><path d="m287.351562 372.066406-14.980468-72.667968v-69.152344h-98.394532v69.152344l-14.980468 72.667968zm0 0" fill="#bb5d4c"/><path d="m241.457031 230.246094v141.820312h45.894531l-14.980468-72.667968v-69.152344zm0 0" fill="#a44f3e"/><path d="m67.691406 320.066406c-40.132812 11.820313-67.691406 32.785156-67.691406 74.621094v90.082031c0 15.039063 12.191406 27.230469 27.230469 27.230469h391.882812c15.039063 0 27.234375-12.191406 27.234375-27.230469v-90.082031c0-41.835938-27.558594-62.800781-67.691406-74.621094l-106.289062-20.667968v.003906c0 27.167968-49.195313 49.195312-49.195313 49.195312s-49.195313-22.027344-49.195313-49.195312v-.003906zm0 0" fill="#deecf1"/><path d="m378.65625 320.066406-11.078125-2.152344c29.09375 12.6875 47.855469 32.988282 47.855469 67.5v126.585938h3.683594c15.039062 0 27.230468-12.191406 27.230468-27.230469v-90.082031c0-41.835938-27.558594-62.804688-67.691406-74.621094zm0 0" fill="#a8d3d8"/><path d="m173.976562 299.398438-39.828124 7.746093c2.371093 22.070313 21.957031 42.03125 42.15625 57.039063 5.660156 4.203125 13.308593 4.53125 19.355468.910156l27.515625-16.496094s-49.199219-22.027344-49.199219-49.199218zm0 0" fill="#8ebac5"/><path d="m272.371094 299.398438c0 27.171874-49.195313 49.195312-49.195313 49.195312l27.511719 16.496094c6.046875 3.625 13.695312 3.296875 19.355469-.90625 20.199219-15.007813 39.785156-34.96875 42.15625-57.039063zm0 0" fill="#8ebac5"/><path d="m223.175781 512s0-24.929688-.003906-46.460938c0-19.53125-6.007813-38.582031-17.214844-54.582031-25.878906-36.941406-71.808593-103.808593-71.808593-103.8125l-39.929688 7.765625v45.34375c0 13.839844-3.582031 27.449219-10.394531 39.5-7.070313 12.503906-10.636719 26.675782-10.371094 41.039063l.0625 71.207031zm0 0" fill="#ff9838"/><path d="m223.175781 512s0-24.929688 0-46.460938c0-19.53125 6.007813-38.582031 17.214844-54.582031 25.878906-36.941406 71.808594-103.808593 71.808594-103.8125l39.929687 7.765625v45.34375c0 13.839844 3.582032 27.449219 10.394532 39.5 7.070312 12.503906 10.636718 26.675782 10.371093 41.039063l-.058593 71.207031zm0 0" fill="#ff8709"/><path d="m321.011719 140.75h-6.246094v-24.863281c0-24.75-10.160156-48.730469-28.914063-64.878907-14.703124-12.664062-35.375-23.714843-62.675781-24.019531-27.304687.304688-47.972656 11.355469-62.679687 24.019531-18.753906 16.148438-28.914063 40.128907-28.914063 64.878907v24.863281h-6.246093c-9.15625 0-16.578126 7.421875-16.578126 16.574219v18.371093c0 9.15625 7.421876 16.578126 16.578126 16.578126h6.269531c.515625 24.058593 10.625 47.214843 28.890625 62.941406 14.703125 12.660156 35.375 23.710937 62.679687 24.015625 27.300781-.304688 47.972657-11.355469 62.675781-24.015625 18.265626-15.726563 28.375-38.882813 28.890626-62.941406h6.269531c9.15625 0 16.578125-7.421876 16.578125-16.578126v-18.371093c0-9.152344-7.425782-16.574219-16.578125-16.574219zm0 0" fill="#bb5d4c"/><path d="m321.011719 140.75h-6.246094v-24.863281c0-24.75-10.160156-48.730469-28.914063-64.878907-.488281-.421874-.988281-.839843-1.488281-1.257812l-.019531 151.539062c-.515625 24.058594-10.625 47.214844-28.890625 62.941407-6.109375 5.261719-13.257813 10.242187-21.476563 14.292969 22.027344-2.648438 39.175782-12.375 51.875-23.308594 18.265626-15.726563 28.375-38.882813 28.890626-62.941406h6.269531c9.15625 0 16.578125-7.421876 16.578125-16.578126v-18.371093c0-9.152344-7.425782-16.574219-16.578125-16.574219zm0 0" fill="#a44f3e"/><path d="m227.921875 0h-9.496094c-57.6875 0-104.453125 46.765625-104.453125 104.453125v30.074219h218.40625v-30.074219c-.003906-57.6875-46.769531-104.453125-104.457031-104.453125zm0 0" fill="#ff9838"/><path d="m227.921875 0h-9.496094c-3.664062 0-7.285156.195312-10.851562.566406 52.5625 5.453125 93.546875 49.882813 93.546875 103.886719v30.074219h31.253906v-30.074219c0-57.6875-46.765625-104.453125-104.453125-104.453125zm0 0" fill="#ff8709"/><path d="m336.859375 150.628906h-227.371094c-8.433593 0-15.269531-6.839844-15.269531-15.273437 0-8.433594 6.835938-15.269531 15.269531-15.269531h227.367188c8.433593 0 15.273437 6.835937 15.273437 15.269531 0 8.433593-6.839844 15.273437-15.269531 15.273437zm0 0" fill="#ff8709"/><path d="m236.527344 65.480469v-65.125c-2.839844-.230469-5.707032-.355469-8.605469-.355469h-9.496094c-2.898437 0-5.765625.125-8.605469.355469v65.125c0 7.375 26.707032 7.375 26.707032 0zm0 0" fill="#ffaa5c"/><path d="m292.609375 41.78125v-19.34375c-8.03125-6.34375-17.019531-11.53125-26.707031-15.3125v34.65625c0 7.371094 26.707031 7.371094 26.707031 0zm0 0" fill="#ffaa5c"/><path d="m283.90625 46.996094c4.808594-.664063 8.703125-2.402344 8.703125-5.214844v-19.34375c-.945313-.746094-1.902344-1.46875-2.871094-2.183594-.136719-.101562-.273437-.199218-.414062-.300781-1.929688-1.402344-3.910157-2.746094-5.933594-4.015625-.140625-.089844-.28125-.175781-.421875-.265625-2.042969-1.265625-4.128906-2.46875-6.261719-3.59375-.136719-.074219-.269531-.144531-.40625-.214844-2.152343-1.125-4.347656-2.179687-6.585937-3.15625-.125-.054687-.25-.113281-.378906-.167969-1.132813-.488281-2.277344-.964843-3.433594-1.417968v19.125c6.871094 6.089844 12.929687 13.0625 18.003906 20.75zm0 0" fill="#ff9838"/><path d="m180.445312 41.78125v-34.65625c-9.6875 3.78125-18.675781 8.96875-26.707031 15.3125v19.34375c0 7.371094 26.707031 7.371094 26.707031 0zm0 0" fill="#ffaa5c"/><g fill="#fff156"><path d="m289.003906 481.148438h83.867188l.011718-35.550782h-83.878906c-2.417968 0-4.375 1.957032-4.375 4.375v26.800782c0 2.417968 1.957032 4.375 4.375 4.375zm0 0"/><path d="m73.4375 481.148438h83.871094c2.417968 0 4.375-1.957032 4.378906-4.375l.007812-26.796876c0-2.417968-1.960937-4.378906-4.378906-4.378906h-83.878906zm0 0"/></g></svg>