<?xml version="1.0" standalone="no"?>
<!DOCTYPE svg PUBLIC "-//W3C//DTD SVG 20010904//EN"
"http://www.w3.org/TR/2001/REC-SVG-20010904/DTD/svg10.dtd">
<svg version="1.0" xmlns="http://www.w3.org/2000/svg"
width="1000.000000pt" height="1000.000000pt" viewBox="0 0 1000.000000 1000.000000"
preserveAspectRatio="xMidYMid meet">

<g transform="translate(0.000000,1000.000000) scale(0.100000,-0.100000)"
fill="#109ef1" stroke="none">
<path d="M5792 8498 c-84 -13 -154 -66 -189 -143 -17 -38 -18 -108 -18 -1290
l0 -1250 -23 -62 c-62 -172 -208 -307 -380 -354 -92 -24 -243 -20 -330 10
-151 52 -281 179 -339 331 -12 30 -25 66 -29 79 -9 33 -12 353 -15 1463 -1
520 -5 970 -10 999 -11 70 -31 110 -77 151 -98 89 -241 88 -345 -1 -10 -9 -30
-40 -44 -69 l-25 -54 1 -1161 c2 -1102 7 -1333 31 -1444 41 -183 162 -396 302
-529 115 -110 276 -204 425 -250 l63 -19 0 -625 c1 -344 2 -847 3 -1119 l2
-494 -45 -32 c-115 -81 -192 -239 -192 -395 0 -307 292 -542 594 -479 96 20
167 62 244 141 113 117 151 216 141 369 -6 107 -26 170 -79 249 -38 56 -59 78
-136 137 l-22 18 -6 1116 -7 1116 74 23 c84 27 220 94 287 142 69 51 179 157
228 221 98 129 176 304 202 459 9 53 6 2496 -3 2557 -5 36 -18 56 -63 104 -31
32 -64 63 -73 68 -33 17 -96 25 -147 17z"/>
</g>
</svg>
